<?xml version="1.0" standalone="no"?>
<!DOCTYPE svg PUBLIC "-//W3C//DTD SVG 20010904//EN"
 "http://www.w3.org/TR/2001/REC-SVG-20010904/DTD/svg10.dtd">
<svg version="1.0"
    xmlns="http://www.w3.org/2000/svg" width="1000.000000pt" height="1000.000000pt" viewBox="0 0 1000.000000 1000.000000" preserveAspectRatio="xMidYMid meet">

    <g transform="translate(0.000000,1000.000000) scale(0.100000,-0.100000)" fill="#6228FF" stroke="none">
        <path d="M5884 9992 c-12 -7 -116 -182 -416 -697 -96 -165 -252 -433 -347
-595 -220 -376 -266 -454 -331 -565 -29 -49 -53 -91 -55 -93 -1 -1 -126 102
-276 230 -151 129 -316 269 -368 313 l-94 80 -76 6 c-116 9 -435 10 -447 2 -7
-5 -74 -98 -151 -208 -112 -161 -164 -247 -264 -442 -133 -261 -137 -274 -73
-281 23 -2 74 25 239 131 l210 134 134 12 c74 7 137 8 142 4 4 -4 21 -186 38
-403 17 -217 34 -423 37 -458 l6 -63 181 -207 c99 -114 287 -331 418 -482
l238 -275 128 -49 c70 -26 314 -117 542 -201 274 -102 418 -160 425 -172 6
-10 143 -268 303 -573 161 -305 302 -572 313 -592 25 -45 63 -59 88 -34 15 15
17 54 20 326 l4 310 26 0 c15 0 92 -8 171 -17 l143 -17 19 22 c13 17 16 29 9
47 -5 12 -203 337 -441 722 -237 384 -460 744 -495 801 -35 57 -64 105 -64
108 0 2 118 63 263 135 202 101 330 174 557 318 162 103 323 204 356 225 l62
37 77 172 c175 386 223 479 403 779 122 204 274 438 439 674 138 199 256 371
262 383 14 25 1 56 -27 63 -16 5 -340 -86 -1560 -434 l-402 -115 -100 306
c-54 168 -120 374 -146 456 -25 83 -53 158 -62 168 -16 18 -39 22 -58 9z m29
-219 c33 -103 238 -734 243 -747 5 -14 -72 -74 -298 -233 -91 -63 -214 -151
-822 -585 -76 -55 -136 -92 -133 -83 4 8 100 176 215 373 115 196 291 499 392
672 232 399 380 650 385 650 2 0 10 -21 18 -47z m2141 -330 c-39 -61 -407
-589 -418 -601 -7 -7 -176 -48 -377 -92 -449 -99 -904 -200 -1279 -285 -156
-35 -286 -62 -289 -60 -2 3 22 39 54 82 82 109 260 284 388 379 l108 81 392
112 c216 62 622 178 902 258 281 79 512 147 514 149 2 2 9 4 14 4 5 0 1 -12
-9 -27z m-476 -700 c-13 -21 -87 -144 -164 -273 l-142 -235 -836 -3 c-666 -2
-836 0 -836 10 0 7 13 35 28 62 l29 49 144 33 c79 18 380 85 669 149 289 64
651 144 805 179 154 35 290 64 303 65 l24 1 -24 -37z m-3682 -176 c3 -3 -18
-81 -46 -174 -46 -148 -87 -238 -118 -257 -4 -2 -74 -10 -156 -17 l-148 -12
-68 69 -69 69 117 169 117 168 183 -5 c100 -2 185 -7 188 -10z m572 -435 c34
-30 61 -57 58 -59 -4 -5 -456 106 -557 137 l-66 20 43 138 c24 75 46 143 49
150 4 11 193 -143 473 -386z m1134 326 c-47 -69 -117 -216 -151 -316 -129
-387 -119 -885 35 -1571 19 -85 34 -157 34 -160 -1 -9 -77 152 -300 639 -115
250 -252 549 -304 664 -78 170 -94 212 -84 222 22 22 783 563 791 564 4 0 -5
-19 -21 -42z m1638 -278 c0 -6 -33 -81 -73 -168 -41 -86 -98 -211 -127 -277
-29 -66 -57 -125 -62 -131 -9 -13 -79 7 -410 116 -97 32 -367 118 -600 190
-233 73 -427 136 -432 141 -5 4 1 36 15 73 l23 66 833 0 c553 0 833 -3 833
-10z m-3951 -74 l43 -44 -98 -65 c-55 -35 -100 -63 -102 -62 -5 4 102 215 108
215 3 0 25 -20 49 -44z m1280 -153 l144 -38 94 -205 c52 -113 163 -356 248
-540 84 -184 196 -429 250 -545 53 -115 141 -307 195 -425 54 -118 110 -241
125 -273 15 -32 26 -59 24 -61 -4 -3 -643 231 -852 312 -78 31 -115 51 -136
74 -15 18 -197 227 -403 464 l-375 431 -2 69 c-1 37 -4 71 -6 74 -2 4 -11 96
-19 206 -9 109 -23 282 -31 383 l-16 184 25 37 25 38 283 -73 c156 -41 348
-91 427 -112z m1052 27 c46 -16 280 -91 519 -165 572 -179 771 -245 765 -255
-3 -5 -47 -34 -98 -66 -50 -32 -179 -114 -285 -181 -137 -87 -307 -181 -587
-323 l-393 -200 -16 88 c-58 316 -79 640 -56 862 10 91 37 247 47 263 7 11 15
9 104 -23z m250 -1442 c79 -128 246 -399 372 -603 334 -538 430 -695 426 -699
-2 -2 -66 3 -142 13 l-138 16 -23 40 c-12 22 -112 198 -221 390 -297 524 -525
926 -546 963 -10 18 -19 35 -19 37 0 5 131 74 142 75 3 0 71 -105 149 -232z
m-106 -253 c87 -154 240 -424 340 -600 100 -176 197 -349 216 -385 l34 -65 -5
-240 -5 -240 -161 305 c-413 780 -385 722 -452 955 -33 116 -79 287 -102 380
-23 94 -44 179 -47 190 l-5 20 14 -20 c8 -11 86 -146 173 -300z"/>
        <path d="M3690 4984 c-210 -27 -369 -81 -738 -250 -163 -75 -481 -221 -707
-324 -482 -220 -491 -224 -499 -246 -10 -25 20 -64 50 -64 13 0 52 14 86 31
34 17 218 102 408 189 190 87 488 223 663 304 353 161 411 184 577 227 163 43
361 50 507 20 215 -45 400 -124 588 -252 122 -82 214 -158 410 -338 369 -337
537 -433 1126 -645 289 -103 493 -206 534 -270 22 -34 30 -124 15 -184 -14
-61 -48 -109 -97 -139 -33 -20 -38 -20 -77 -7 -22 8 -165 47 -316 85 -332 86
-436 119 -515 163 -142 81 -240 128 -322 153 -83 26 -99 27 -283 27 -149 0
-202 -4 -225 -15 -36 -17 -43 -44 -19 -71 17 -18 26 -19 119 -12 210 16 308 4
464 -56 43 -17 107 -49 142 -72 127 -82 239 -121 629 -217 249 -62 291 -74
292 -87 2 -13 -150 -40 -362 -64 -380 -42 -442 -52 -568 -88 -110 -32 -141
-37 -232 -37 -99 0 -109 2 -170 33 -36 18 -104 65 -152 105 -86 72 -956 617
-1062 665 -104 48 -231 74 -366 74 -336 1 -565 -107 -1035 -488 -196 -158
-389 -295 -492 -347 -57 -30 -52 -97 7 -97 58 0 258 134 560 375 358 286 491
366 710 428 62 17 104 21 240 21 156 1 170 -1 253 -28 49 -16 123 -50 165 -76
900 -552 880 -539 962 -608 205 -174 326 -200 595 -127 186 50 195 51 428 75
243 25 401 47 482 66 33 7 94 14 135 14 42 0 103 7 135 15 162 42 468 237 802
512 l115 94 187 63 c198 67 344 135 363 169 17 32 5 155 -20 203 -29 57 -101
117 -163 137 -32 11 -84 17 -139 17 -80 0 -89 2 -95 20 -10 31 -54 79 -88 97
-43 22 -80 32 -170 47 -116 20 -304 -2 -476 -54 -36 -11 -65 -18 -66 -17 -43
89 -166 137 -355 137 -88 0 -434 -26 -660 -50 -221 -23 -631 -52 -652 -46 -13
3 -102 78 -198 167 -427 392 -673 544 -1009 620 -84 19 -340 33 -421 23z
m3138 -839 c37 -15 57 -35 35 -35 -5 0 -286 -32 -626 -71 l-618 -70 -80 46
c-43 26 -79 50 -79 55 0 4 44 11 98 15 53 3 165 13 247 21 83 8 256 23 385 34
129 10 255 21 280 23 25 3 106 4 180 2 102 -2 146 -6 178 -20z m668 -36 c85
-15 149 -37 168 -58 16 -18 15 -19 -36 -31 -29 -7 -89 -28 -134 -47 -59 -24
-145 -46 -320 -79 -382 -73 -626 -113 -820 -135 l-180 -20 -110 39 c-142 51
-271 105 -259 109 6 1 269 32 585 68 436 49 596 71 660 89 130 38 163 46 263
60 119 18 114 18 183 5z m526 -195 c44 -22 80 -79 86 -132 4 -46 3 -48 -35
-69 -44 -25 -195 -84 -200 -79 -2 2 21 22 52 46 l55 42 0 57 c-1 50 -8 81 -35
144 -7 16 -4 17 21 11 16 -4 41 -13 56 -20z m-213 3 c35 -17 60 -56 66 -102
l6 -40 -202 -170 c-435 -366 -708 -561 -884 -634 -80 -33 -155 -49 -155 -32 0
6 6 11 13 11 29 0 97 73 129 138 31 62 33 73 33 167 0 76 -5 108 -18 132 -9
18 -17 38 -17 46 0 32 224 157 374 209 46 15 86 38 123 71 109 95 244 173 351
202 61 17 150 18 181 2z m-599 -124 c-1 -14 -45 -39 -110 -62 -108 -39 -208
-90 -307 -157 -52 -35 -99 -64 -104 -64 -5 0 -28 12 -52 27 -23 14 -87 48
-142 74 -54 27 -93 50 -85 53 8 2 44 7 80 11 75 7 341 53 550 94 167 33 170
34 170 24z"/>
        <path d="M450 2316 c-109 -38 -105 -36 -164 -70 -31 -18 -55 -38 -110 -92 -70
-69 -87 -91 -118 -155 -54 -106 -58 -130 -58 -310 0 -158 2 -172 27 -241 15
-40 44 -97 64 -126 44 -62 106 -132 117 -132 5 0 18 -11 30 -25 12 -14 28 -25
36 -25 7 0 19 -6 25 -14 15 -18 173 -76 206 -76 13 0 27 -4 30 -10 8 -13 229
-13 253 -1 9 5 44 15 76 22 76 17 198 79 236 121 l30 32 0 231 c0 126 -3 240
-6 253 -6 20 -12 22 -70 22 l-64 0 0 -219 0 -219 -43 -25 c-86 -51 -163 -70
-282 -70 -87 0 -123 5 -175 23 -71 24 -150 67 -150 81 0 5 -6 9 -13 9 -25 0
-95 88 -135 170 -34 71 -45 144 -40 260 5 91 10 114 36 170 17 36 37 74 44 85
44 68 159 152 243 178 88 27 173 40 222 34 164 -21 218 -43 316 -131 19 -18
67 -22 67 -6 0 5 14 23 30 38 36 35 37 60 4 87 -14 11 -37 30 -51 43 -14 12
-31 22 -36 22 -6 0 -18 6 -26 14 -9 8 -58 28 -109 45 -86 29 -102 31 -235 30
-121 0 -152 -4 -207 -23z"/>
        <path d="M1470 1702 c0 -715 -7 -652 73 -652 93 0 87 -12 87 201 l0 188 205 3
206 3 39 -53 c22 -29 40 -57 40 -62 0 -6 4 -10 8 -10 5 0 15 -12 22 -26 8 -14
29 -41 47 -61 18 -19 33 -39 33 -44 0 -5 9 -19 20 -31 11 -12 20 -28 20 -35 0
-7 9 -17 20 -23 11 -6 20 -17 20 -24 0 -19 23 -26 90 -26 95 0 101 34 22 127
-23 28 -62 85 -97 141 -5 9 -15 21 -21 27 -19 19 -64 84 -64 93 0 6 -7 12 -15
16 -22 8 -18 34 8 47 91 47 156 112 200 199 20 40 22 60 22 190 0 133 -2 149
-24 193 -28 57 -109 143 -165 176 -22 12 -73 34 -115 48 -74 26 -84 26 -378
31 l-303 4 0 -640z m640 463 c30 -9 62 -23 71 -31 8 -8 19 -14 23 -14 14 0 45
-43 72 -99 24 -50 26 -62 22 -155 -2 -66 -8 -101 -16 -104 -7 -2 -12 -12 -12
-22 0 -22 -65 -87 -105 -104 -16 -7 -43 -19 -60 -26 -20 -9 -103 -15 -252 -18
l-223 -5 0 303 0 303 213 -6 c154 -4 227 -10 267 -22z"/>
        <path d="M3070 2317 c-75 -26 -175 -73 -201 -96 -61 -53 -140 -135 -155 -161
-10 -16 -22 -30 -26 -30 -4 0 -8 -5 -8 -10 0 -6 -9 -29 -19 -53 -40 -86 -51
-147 -51 -276 0 -94 5 -142 19 -191 25 -86 48 -137 72 -163 10 -11 19 -25 19
-30 0 -13 149 -157 174 -168 12 -6 37 -19 56 -29 32 -17 91 -39 195 -70 53
-15 232 -8 310 13 73 19 165 57 183 74 7 7 17 13 21 13 5 0 19 10 33 23 92 82
118 107 118 115 0 4 8 17 18 28 29 31 98 175 107 224 19 98 6 370 -16 370 -5
0 -9 7 -9 16 0 14 -49 115 -75 153 -10 15 -128 132 -155 155 -35 28 -98 59
-182 87 -81 27 -99 29 -226 28 -113 0 -148 -4 -202 -22z m330 -136 c48 -9 150
-54 183 -81 80 -64 110 -100 146 -174 23 -45 41 -94 41 -108 0 -15 5 -30 10
-33 6 -3 10 -46 10 -95 0 -49 -4 -92 -10 -95 -5 -3 -10 -16 -10 -28 0 -12 -6
-38 -14 -57 -7 -19 -19 -50 -25 -67 -7 -18 -17 -33 -21 -33 -5 0 -11 -8 -14
-18 -10 -30 -120 -132 -143 -132 -6 0 -13 -4 -15 -9 -1 -4 -30 -18 -63 -31
-240 -90 -508 -7 -639 199 -44 68 -76 183 -76 271 0 86 34 205 78 274 71 111
202 200 317 215 30 4 58 11 62 15 9 9 101 2 183 -13z"/>
        <path d="M4197 2333 c-4 -3 -7 -289 -7 -634 0 -611 1 -629 19 -639 23 -12 110
-13 128 -2 10 6 13 121 15 496 l3 489 54 -77 c30 -42 58 -76 63 -76 4 0 8 -6
8 -12 0 -7 13 -25 29 -40 15 -16 34 -40 42 -55 8 -15 23 -36 34 -48 55 -60 75
-84 75 -92 0 -4 12 -19 25 -32 14 -13 25 -27 25 -31 0 -5 16 -26 35 -47 20
-21 42 -45 49 -53 8 -8 20 -27 27 -42 7 -16 16 -28 20 -28 4 0 29 -30 55 -67
26 -38 59 -80 73 -94 14 -14 52 -62 84 -107 33 -44 66 -83 74 -86 8 -3 34 -6
58 -6 82 0 75 -62 75 635 0 343 -3 630 -6 639 -5 12 -21 16 -74 16 -62 0 -68
-2 -74 -22 -3 -13 -6 -238 -6 -501 l0 -479 -27 34 c-46 55 -47 57 -68 83 -11
15 -32 41 -47 58 -15 18 -33 43 -40 56 -7 13 -30 42 -51 65 -34 36 -53 61
-102 134 -5 8 -19 25 -30 37 -11 12 -36 43 -55 69 -19 26 -42 55 -51 64 -8 9
-29 35 -45 57 -44 60 -57 76 -76 94 -10 8 -18 21 -18 27 0 7 -4 14 -9 16 -5 2
-32 35 -61 73 -100 133 -103 135 -163 135 -30 0 -57 -3 -60 -7z"/>
        <path d="M5960 2317 c-68 -23 -174 -73 -200 -95 -125 -104 -210 -226 -239
-340 -23 -87 -29 -276 -11 -342 5 -19 14 -55 21 -80 6 -25 27 -66 45 -93 19
-26 34 -51 34 -56 0 -4 28 -36 63 -70 90 -90 102 -101 112 -101 4 0 16 -6 24
-14 22 -19 175 -76 204 -76 13 0 28 -5 34 -11 15 -15 226 -6 298 14 64 17 167
57 175 68 3 3 15 12 28 18 42 22 112 86 149 136 85 113 103 148 125 245 17 73
21 239 8 300 -19 82 -52 180 -61 180 -5 0 -9 7 -9 15 0 8 -9 24 -20 35 -11 11
-20 24 -20 29 0 14 -121 131 -136 131 -8 0 -14 6 -14 13 -1 15 -101 63 -198
94 -62 20 -93 23 -210 22 -113 0 -148 -4 -202 -22z m328 -135 c180 -36 326
-178 378 -367 29 -107 12 -262 -41 -355 -13 -25 -29 -54 -34 -65 -9 -19 -57
-70 -98 -105 -35 -30 -74 -51 -145 -77 -63 -23 -88 -26 -188 -26 -85 1 -123 5
-145 17 -16 9 -36 16 -44 16 -23 0 -117 58 -168 105 -45 39 -65 72 -127 204
-16 35 -15 313 2 319 6 2 12 12 12 21 0 49 80 160 164 228 35 29 135 72 190
82 33 6 62 14 65 17 8 7 111 -1 179 -14z"/>
        <path d="M7433 2325 c-7 -8 -13 -17 -13 -20 0 -4 -15 -39 -34 -78 -18 -40 -39
-87 -46 -104 -7 -18 -16 -33 -20 -33 -4 0 -13 -20 -20 -45 -7 -25 -17 -45 -21
-45 -5 0 -9 -8 -9 -17 0 -10 -21 -58 -45 -108 -25 -49 -45 -96 -45 -102 0 -7
-4 -13 -10 -13 -5 0 -10 -5 -10 -12 0 -6 -9 -30 -19 -52 -11 -23 -34 -75 -51
-116 -18 -41 -36 -77 -41 -80 -4 -3 -11 -18 -14 -33 -4 -15 -11 -27 -16 -27
-5 0 -9 -8 -9 -17 0 -10 -11 -40 -25 -68 -13 -27 -25 -56 -25 -62 0 -7 -4 -13
-10 -13 -5 0 -10 -7 -10 -16 0 -9 -12 -39 -26 -68 -14 -28 -32 -64 -40 -79
-28 -56 -16 -67 71 -67 63 0 85 7 85 26 0 8 5 14 10 14 6 0 10 7 10 16 0 9 15
49 33 88 19 39 40 86 47 104 7 17 16 32 20 32 4 0 11 11 14 25 l6 25 335 0
c282 0 335 -2 335 -14 0 -8 3 -16 8 -18 7 -3 47 -82 77 -153 32 -75 60 -130
70 -137 12 -9 107 -10 129 -2 17 6 24 74 8 74 -5 0 -15 19 -22 43 -8 23 -20
49 -27 58 -7 8 -13 18 -13 21 0 3 -18 45 -40 92 -22 47 -40 92 -40 100 0 8 -3
16 -7 18 -5 2 -18 23 -29 48 -27 56 -72 155 -90 195 -7 17 -33 73 -57 125 -63
135 -77 167 -77 178 0 6 -3 12 -7 14 -11 4 -43 75 -43 93 0 8 -4 15 -8 15 -5
0 -22 33 -38 73 -16 39 -32 74 -36 75 -5 2 -8 10 -8 19 0 8 -6 21 -14 29 -20
19 -126 18 -143 -1z m97 -259 c0 -6 9 -29 20 -51 23 -48 97 -208 116 -250 7
-16 22 -51 33 -77 12 -26 21 -52 21 -58 0 -5 4 -10 9 -10 5 0 14 -15 21 -32 6
-18 16 -41 21 -50 9 -17 -7 -18 -261 -18 -148 0 -270 4 -270 9 0 13 51 125 59
131 5 3 11 19 15 35 4 17 13 37 20 45 6 8 18 33 25 55 12 33 89 204 134 293
10 22 12 22 24 6 7 -10 13 -23 13 -28z"/>
        <path d="M8316 2318 c-11 -41 -7 -1228 4 -1249 9 -15 22 -19 68 -19 32 0 63 5
70 12 9 9 12 159 12 614 0 331 -3 616 -6 633 l-6 31 -68 0 c-62 0 -68 -2 -74
-22z"/>
        <path d="M8836 2324 c-3 -9 -6 -293 -6 -633 0 -467 3 -620 12 -629 9 -9 95
-12 328 -12 288 0 322 2 390 21 72 20 176 66 205 92 49 42 141 132 150 147 35
60 61 110 72 140 16 43 18 465 3 475 -5 3 -10 13 -10 21 0 8 -16 40 -35 70
-19 30 -35 57 -35 60 0 7 -113 116 -146 140 -44 31 -142 76 -204 92 -105 27
-157 31 -436 31 -248 1 -283 -1 -288 -15z m663 -154 c49 -12 146 -54 167 -73
7 -7 26 -21 40 -32 46 -34 81 -76 102 -119 54 -114 57 -126 57 -256 0 -115 -2
-130 -29 -195 -45 -106 -89 -161 -176 -217 -30 -19 -71 -40 -90 -46 -132 -41
-137 -42 -359 -42 l-221 0 0 501 0 502 233 -6 c127 -4 252 -11 276 -17z"/>
        <path d="M917 614 c-4 -4 -7 -144 -7 -311 l0 -303 40 0 40 0 0 130 0 130 170
0 170 0 0 -130 0 -130 39 0 c26 0 41 5 45 16 8 21 8 552 0 582 -6 19 -12 23
-43 20 l-36 -3 -3 -132 -3 -133 -169 0 -169 0 -3 133 -3 132 -30 3 c-17 2 -34
0 -38 -4z"/>
        <path d="M1564 596 c-12 -48 2 -439 17 -473 7 -18 17 -33 21 -33 4 0 8 -5 8
-11 0 -13 35 -47 68 -66 29 -18 254 -18 284 0 38 21 87 77 100 115 9 26 13
103 13 262 l0 225 -42 3 c-24 2 -44 2 -45 0 0 -2 -4 -104 -7 -228 -7 -252 -11
-267 -76 -300 -56 -28 -125 -27 -175 5 -63 40 -70 68 -70 289 0 105 -3 201 -6
214 -5 18 -13 22 -45 22 -33 0 -40 -4 -45 -24z"/>
        <path d="M2215 588 c-3 -18 -4 -157 -3 -308 l3 -275 38 -3 c20 -2 38 -2 39 0
1 2 4 91 7 198 l6 195 20 -40 c11 -22 22 -42 25 -45 3 -3 12 -18 20 -35 8 -16
21 -36 28 -44 7 -7 16 -26 19 -42 3 -16 8 -29 12 -29 3 0 20 -21 36 -45 51
-76 85 -70 131 22 15 32 41 77 56 100 15 23 28 46 28 52 0 6 4 11 9 11 5 0 22
26 37 58 l29 57 3 -207 2 -208 40 0 40 0 -2 307 -3 308 -37 3 c-33 3 -38 0
-53 -32 -10 -20 -21 -36 -26 -36 -5 0 -9 -6 -9 -14 0 -8 -18 -44 -40 -80 -22
-36 -40 -70 -40 -76 0 -5 -4 -10 -9 -10 -5 0 -12 -11 -15 -25 -4 -14 -11 -25
-16 -25 -6 0 -10 -6 -10 -14 0 -8 -3 -16 -7 -18 -5 -1 -17 -20 -27 -40 -11
-21 -23 -38 -27 -38 -4 0 -20 26 -36 58 -15 31 -31 59 -34 62 -3 3 -11 20 -19
39 -7 19 -23 44 -34 57 -12 12 -37 53 -56 91 -42 82 -61 103 -94 103 -20 0
-26 -6 -31 -32z"/>
        <path d="M3127 537 c-21 -45 -44 -95 -51 -112 -8 -16 -35 -75 -61 -130 -148
-317 -143 -295 -72 -295 46 0 49 3 92 108 l18 42 148 0 c139 0 148 -1 154 -20
3 -11 10 -20 14 -20 5 0 11 -14 15 -32 12 -61 31 -78 86 -78 60 0 61 6 23 82
-27 51 -64 131 -106 228 -10 25 -25 56 -33 70 -7 14 -19 36 -25 50 -92 197
-87 190 -127 190 -36 -1 -38 -2 -75 -83z m83 -92 c0 -8 5 -15 10 -15 6 0 10
-5 10 -12 0 -6 18 -46 40 -89 22 -43 40 -80 40 -83 0 -3 -47 -6 -105 -6 -58 0
-105 3 -105 6 0 4 8 23 19 43 34 66 71 150 71 160 0 6 5 11 10 11 6 0 10 -7
10 -15z"/>
        <path d="M3576 598 c-8 -30 -8 -562 0 -582 4 -11 19 -16 45 -16 l39 0 0 215
c0 137 4 215 10 215 6 0 10 -4 10 -8 0 -5 11 -22 25 -38 14 -16 25 -32 25 -36
0 -4 12 -21 28 -37 43 -46 71 -83 92 -118 11 -18 24 -33 29 -33 5 0 12 -8 15
-18 3 -9 18 -31 33 -48 16 -18 40 -46 55 -63 20 -24 34 -31 62 -31 l35 0 3
291 c2 160 0 299 -4 310 -6 16 -15 20 -40 17 l-33 -3 -3 -222 c-2 -215 -9
-258 -31 -200 -5 13 -21 34 -35 47 -14 14 -26 29 -26 34 0 5 -10 18 -22 30
-13 12 -36 41 -53 66 -30 46 -80 108 -115 145 -11 12 -20 26 -20 33 0 7 -3 12
-7 12 -5 0 -17 14 -28 30 -26 39 -79 43 -89 8z"/>
        <path d="M4245 588 c-3 -18 -4 -157 -3 -308 l3 -275 34 -3 c20 -2 37 2 42 10
10 15 12 530 3 577 -6 27 -11 31 -40 31 -29 0 -34 -4 -39 -32z"/>
        <path d="M4366 598 c-8 -32 -8 -35 10 -52 12 -12 37 -16 105 -16 l89 0 2 -262
3 -263 40 0 40 0 3 263 2 262 83 0 c118 0 129 5 125 49 l-3 36 -246 3 -247 2
-6 -22z"/>
        <path d="M5050 604 c0 -9 -9 -28 -19 -43 -11 -15 -23 -39 -26 -54 -4 -15 -11
-27 -16 -27 -5 0 -9 -6 -9 -14 0 -22 -100 -239 -112 -244 -5 -2 -8 -11 -8 -19
0 -8 -8 -32 -19 -52 -33 -64 -51 -111 -51 -131 0 -17 7 -20 41 -20 49 0 58 8
89 88 l25 62 145 0 c138 -1 146 -2 161 -23 9 -12 20 -37 23 -55 4 -17 11 -32
16 -32 5 0 12 -9 15 -20 5 -17 15 -20 57 -20 49 0 50 1 44 25 -3 14 -9 37 -13
53 -3 15 -12 32 -19 37 -7 6 -32 53 -55 105 -23 52 -65 145 -95 206 -30 61
-54 114 -54 117 0 4 -10 23 -22 42 -20 29 -29 35 -60 35 -28 0 -38 -4 -38 -16z
m100 -249 c28 -58 50 -108 50 -110 0 -3 -47 -5 -105 -5 -58 0 -105 4 -105 9 0
5 7 16 15 25 8 8 15 17 15 21 0 3 9 25 19 48 10 23 26 59 34 80 9 20 19 37 22
37 3 0 28 -47 55 -105z"/>
        <path d="M5476 604 c-3 -9 -6 -148 -6 -310 l0 -294 40 0 40 0 0 85 0 85 100 0
c55 0 100 -4 100 -8 0 -4 7 -17 15 -27 8 -11 28 -37 45 -58 16 -21 32 -47 35
-58 5 -16 16 -19 61 -19 50 0 54 2 54 23 0 12 -8 30 -17 39 -39 37 -53 55 -53
66 0 7 -4 12 -10 12 -5 0 -16 13 -24 29 -14 27 -14 29 15 57 63 60 71 78 71
168 0 114 -33 174 -111 198 -22 7 -41 16 -41 20 0 5 -69 8 -154 8 -131 0 -155
-2 -160 -16z m286 -85 c53 -14 84 -47 92 -94 11 -65 -20 -122 -77 -144 -16 -6
-73 -11 -128 -11 l-99 0 0 130 0 130 88 0 c48 0 104 -5 124 -11z"/>
        <path d="M6056 589 c-9 -47 -7 -562 3 -577 5 -8 22 -12 42 -10 l34 3 3 285 c1
157 0 295 -3 308 -4 17 -12 22 -39 22 -30 0 -34 -4 -40 -31z"/>
        <path d="M6440 604 c0 -9 -7 -28 -15 -42 -8 -15 -19 -38 -25 -52 -5 -14 -14
-32 -19 -40 -5 -8 -19 -36 -30 -62 -12 -27 -30 -69 -42 -95 -31 -73 -73 -157
-80 -163 -4 -3 -12 -24 -18 -47 -6 -23 -16 -45 -21 -48 -6 -3 -10 -17 -10 -31
0 -22 4 -24 46 -24 l45 0 26 58 c15 31 30 59 35 60 4 2 8 10 8 18 0 11 26 14
141 14 139 0 142 0 164 -25 12 -14 29 -48 39 -75 l18 -50 49 0 c37 0 49 4 49
15 0 20 -48 135 -64 155 -7 8 -25 47 -41 85 -15 39 -60 136 -99 217 l-71 147
-42 1 c-33 0 -43 -4 -43 -16z m130 -306 c11 -20 20 -42 20 -47 0 -7 -39 -11
-106 -11 l-106 0 14 23 c8 12 27 52 42 90 16 37 32 67 36 67 4 0 10 10 14 23
5 18 10 12 36 -43 17 -36 39 -82 50 -102z"/>
        <path d="M6867 613 c-4 -3 -7 -143 -7 -310 l0 -303 40 0 c22 0 41 1 42 3 1 1
4 99 7 217 4 142 9 209 15 196 5 -11 17 -27 25 -36 19 -20 70 -82 106 -126 14
-18 25 -37 25 -43 0 -6 5 -11 10 -11 6 0 10 -6 10 -13 0 -7 9 -18 20 -25 11
-7 20 -18 20 -25 0 -7 11 -21 25 -31 14 -10 25 -24 25 -31 0 -6 14 -26 32 -44
26 -26 38 -31 67 -29 l36 3 3 275 c1 151 0 290 -3 308 -5 29 -9 32 -39 32 -26
0 -35 -5 -40 -22 -3 -13 -6 -115 -6 -228 l-1 -205 -19 25 c-11 14 -29 36 -40
50 -11 14 -20 28 -20 33 0 4 -8 16 -17 26 -46 51 -87 101 -127 153 -23 31 -50
64 -59 73 -9 9 -17 20 -17 24 0 4 -13 22 -28 39 -27 30 -68 42 -85 25z"/>
        <path d="M7867 537 c-46 -98 -76 -163 -107 -234 -13 -29 -27 -53 -31 -53 -4 0
-11 -14 -14 -32 -4 -18 -19 -55 -34 -83 -33 -64 -52 -115 -45 -126 3 -5 24 -9
47 -9 46 0 49 3 92 108 l18 42 147 0 146 0 23 -47 c48 -104 42 -98 99 -101 38
-2 52 1 52 10 0 7 -17 49 -39 93 -60 123 -81 170 -81 183 0 7 -4 12 -10 12 -5
0 -12 15 -16 34 -3 19 -17 49 -30 67 -13 18 -24 37 -24 42 0 16 -61 141 -78
160 -8 9 -29 17 -46 17 -29 -1 -34 -6 -69 -83z m128 -180 c28 -56 52 -105 53
-109 2 -5 -44 -8 -102 -8 -58 0 -106 3 -106 6 0 4 8 23 19 43 34 66 71 150 71
160 0 29 19 1 65 -92z"/>
        <path d="M8305 598 c-3 -13 -4 -151 -3 -308 l3 -285 38 -3 37 -3 -2 308 -3
308 -32 3 c-27 3 -33 -1 -38 -20z"/>
        <path d="M8547 613 c-4 -3 -7 -143 -7 -310 l0 -303 190 0 c188 0 234 7 253 37
4 7 12 13 18 13 9 0 44 34 75 72 18 23 54 140 54 177 0 64 -38 164 -80 209
-22 23 -44 42 -49 42 -6 0 -14 6 -18 13 -10 16 -49 37 -68 37 -8 0 -15 5 -15
10 0 11 -342 14 -353 3z m310 -93 c27 -6 62 -22 77 -35 16 -14 33 -25 38 -25
21 0 48 -86 48 -158 0 -162 -89 -232 -297 -232 l-103 0 0 230 0 230 95 0 c51
0 116 -5 142 -10z"/>
    </g>
</svg>
