<?xml version="1.0" standalone="no"?>
<!DOCTYPE svg PUBLIC "-//W3C//DTD SVG 20010904//EN"
 "http://www.w3.org/TR/2001/REC-SVG-20010904/DTD/svg10.dtd">
<svg version="1.0"
        xmlns="http://www.w3.org/2000/svg" width="1000.000000pt" height="500.000000pt" viewBox="0 0 1000.000000 500.000000" preserveAspectRatio="xMidYMid meet">

        <g transform="translate(0.000000,1000.000000) scale(0.100000,-0.100000)" fill="#e5e7eb" stroke="none">
                <path d="M5884 9992 c-12 -7 -116 -182 -416 -697 -96 -165 -252 -433 -347
-595 -220 -376 -266 -454 -331 -565 -29 -49 -53 -91 -55 -93 -1 -1 -126 102
-276 230 -151 129 -316 269 -368 313 l-94 80 -76 6 c-116 9 -435 10 -447 2 -7
-5 -74 -98 -151 -208 -112 -161 -164 -247 -264 -442 -133 -261 -137 -274 -73
-281 23 -2 74 25 239 131 l210 134 134 12 c74 7 137 8 142 4 4 -4 21 -186 38
-403 17 -217 34 -423 37 -458 l6 -63 181 -207 c99 -114 287 -331 418 -482
l238 -275 128 -49 c70 -26 314 -117 542 -201 274 -102 418 -160 425 -172 6
-10 143 -268 303 -573 161 -305 302 -572 313 -592 25 -45 63 -59 88 -34 15 15
17 54 20 326 l4 310 26 0 c15 0 92 -8 171 -17 l143 -17 19 22 c13 17 16 29 9
47 -5 12 -203 337 -441 722 -237 384 -460 744 -495 801 -35 57 -64 105 -64
108 0 2 118 63 263 135 202 101 330 174 557 318 162 103 323 204 356 225 l62
37 77 172 c175 386 223 479 403 779 122 204 274 438 439 674 138 199 256 371
262 383 14 25 1 56 -27 63 -16 5 -340 -86 -1560 -434 l-402 -115 -100 306
c-54 168 -120 374 -146 456 -25 83 -53 158 -62 168 -16 18 -39 22 -58 9z m29
-219 c33 -103 238 -734 243 -747 5 -14 -72 -74 -298 -233 -91 -63 -214 -151
-822 -585 -76 -55 -136 -92 -133 -83 4 8 100 176 215 373 115 196 291 499 392
672 232 399 380 650 385 650 2 0 10 -21 18 -47z m2141 -330 c-39 -61 -407
-589 -418 -601 -7 -7 -176 -48 -377 -92 -449 -99 -904 -200 -1279 -285 -156
-35 -286 -62 -289 -60 -2 3 22 39 54 82 82 109 260 284 388 379 l108 81 392
112 c216 62 622 178 902 258 281 79 512 147 514 149 2 2 9 4 14 4 5 0 1 -12
-9 -27z m-476 -700 c-13 -21 -87 -144 -164 -273 l-142 -235 -836 -3 c-666 -2
-836 0 -836 10 0 7 13 35 28 62 l29 49 144 33 c79 18 380 85 669 149 289 64
651 144 805 179 154 35 290 64 303 65 l24 1 -24 -37z m-3682 -176 c3 -3 -18
-81 -46 -174 -46 -148 -87 -238 -118 -257 -4 -2 -74 -10 -156 -17 l-148 -12
-68 69 -69 69 117 169 117 168 183 -5 c100 -2 185 -7 188 -10z m572 -435 c34
-30 61 -57 58 -59 -4 -5 -456 106 -557 137 l-66 20 43 138 c24 75 46 143 49
150 4 11 193 -143 473 -386z m1134 326 c-47 -69 -117 -216 -151 -316 -129
-387 -119 -885 35 -1571 19 -85 34 -157 34 -160 -1 -9 -77 152 -300 639 -115
250 -252 549 -304 664 -78 170 -94 212 -84 222 22 22 783 563 791 564 4 0 -5
-19 -21 -42z m1638 -278 c0 -6 -33 -81 -73 -168 -41 -86 -98 -211 -127 -277
-29 -66 -57 -125 -62 -131 -9 -13 -79 7 -410 116 -97 32 -367 118 -600 190
-233 73 -427 136 -432 141 -5 4 1 36 15 73 l23 66 833 0 c553 0 833 -3 833
-10z m-3951 -74 l43 -44 -98 -65 c-55 -35 -100 -63 -102 -62 -5 4 102 215 108
215 3 0 25 -20 49 -44z m1280 -153 l144 -38 94 -205 c52 -113 163 -356 248
-540 84 -184 196 -429 250 -545 53 -115 141 -307 195 -425 54 -118 110 -241
125 -273 15 -32 26 -59 24 -61 -4 -3 -643 231 -852 312 -78 31 -115 51 -136
74 -15 18 -197 227 -403 464 l-375 431 -2 69 c-1 37 -4 71 -6 74 -2 4 -11 96
-19 206 -9 109 -23 282 -31 383 l-16 184 25 37 25 38 283 -73 c156 -41 348
-91 427 -112z m1052 27 c46 -16 280 -91 519 -165 572 -179 771 -245 765 -255
-3 -5 -47 -34 -98 -66 -50 -32 -179 -114 -285 -181 -137 -87 -307 -181 -587
-323 l-393 -200 -16 88 c-58 316 -79 640 -56 862 10 91 37 247 47 263 7 11 15
9 104 -23z m250 -1442 c79 -128 246 -399 372 -603 334 -538 430 -695 426 -699
-2 -2 -66 3 -142 13 l-138 16 -23 40 c-12 22 -112 198 -221 390 -297 524 -525
926 -546 963 -10 18 -19 35 -19 37 0 5 131 74 142 75 3 0 71 -105 149 -232z
m-106 -253 c87 -154 240 -424 340 -600 100 -176 197 -349 216 -385 l34 -65 -5
-240 -5 -240 -161 305 c-413 780 -385 722 -452 955 -33 116 -79 287 -102 380
-23 94 -44 179 -47 190 l-5 20 14 -20 c8 -11 86 -146 173 -300z"/>
                <path d="M3690 4984 c-210 -27 -369 -81 -738 -250 -163 -75 -481 -221 -707
-324 -482 -220 -491 -224 -499 -246 -10 -25 20 -64 50 -64 13 0 52 14 86 31
34 17 218 102 408 189 190 87 488 223 663 304 353 161 411 184 577 227 163 43
361 50 507 20 215 -45 400 -124 588 -252 122 -82 214 -158 410 -338 369 -337
537 -433 1126 -645 289 -103 493 -206 534 -270 22 -34 30 -124 15 -184 -14
-61 -48 -109 -97 -139 -33 -20 -38 -20 -77 -7 -22 8 -165 47 -316 85 -332 86
-436 119 -515 163 -142 81 -240 128 -322 153 -83 26 -99 27 -283 27 -149 0
-202 -4 -225 -15 -36 -17 -43 -44 -19 -71 17 -18 26 -19 119 -12 210 16 308 4
464 -56 43 -17 107 -49 142 -72 127 -82 239 -121 629 -217 249 -62 291 -74
292 -87 2 -13 -150 -40 -362 -64 -380 -42 -442 -52 -568 -88 -110 -32 -141
-37 -232 -37 -99 0 -109 2 -170 33 -36 18 -104 65 -152 105 -86 72 -956 617
-1062 665 -104 48 -231 74 -366 74 -336 1 -565 -107 -1035 -488 -196 -158
-389 -295 -492 -347 -57 -30 -52 -97 7 -97 58 0 258 134 560 375 358 286 491
366 710 428 62 17 104 21 240 21 156 1 170 -1 253 -28 49 -16 123 -50 165 -76
900 -552 880 -539 962 -608 205 -174 326 -200 595 -127 186 50 195 51 428 75
243 25 401 47 482 66 33 7 94 14 135 14 42 0 103 7 135 15 162 42 468 237 802
512 l115 94 187 63 c198 67 344 135 363 169 17 32 5 155 -20 203 -29 57 -101
117 -163 137 -32 11 -84 17 -139 17 -80 0 -89 2 -95 20 -10 31 -54 79 -88 97
-43 22 -80 32 -170 47 -116 20 -304 -2 -476 -54 -36 -11 -65 -18 -66 -17 -43
89 -166 137 -355 137 -88 0 -434 -26 -660 -50 -221 -23 -631 -52 -652 -46 -13
3 -102 78 -198 167 -427 392 -673 544 -1009 620 -84 19 -340 33 -421 23z
m3138 -839 c37 -15 57 -35 35 -35 -5 0 -286 -32 -626 -71 l-618 -70 -80 46
c-43 26 -79 50 -79 55 0 4 44 11 98 15 53 3 165 13 247 21 83 8 256 23 385 34
129 10 255 21 280 23 25 3 106 4 180 2 102 -2 146 -6 178 -20z m668 -36 c85
-15 149 -37 168 -58 16 -18 15 -19 -36 -31 -29 -7 -89 -28 -134 -47 -59 -24
-145 -46 -320 -79 -382 -73 -626 -113 -820 -135 l-180 -20 -110 39 c-142 51
-271 105 -259 109 6 1 269 32 585 68 436 49 596 71 660 89 130 38 163 46 263
60 119 18 114 18 183 5z m526 -195 c44 -22 80 -79 86 -132 4 -46 3 -48 -35
-69 -44 -25 -195 -84 -200 -79 -2 2 21 22 52 46 l55 42 0 57 c-1 50 -8 81 -35
144 -7 16 -4 17 21 11 16 -4 41 -13 56 -20z m-213 3 c35 -17 60 -56 66 -102
l6 -40 -202 -170 c-435 -366 -708 -561 -884 -634 -80 -33 -155 -49 -155 -32 0
6 6 11 13 11 29 0 97 73 129 138 31 62 33 73 33 167 0 76 -5 108 -18 132 -9
18 -17 38 -17 46 0 32 224 157 374 209 46 15 86 38 123 71 109 95 244 173 351
202 61 17 150 18 181 2z m-599 -124 c-1 -14 -45 -39 -110 -62 -108 -39 -208
-90 -307 -157 -52 -35 -99 -64 -104 -64 -5 0 -28 12 -52 27 -23 14 -87 48
-142 74 -54 27 -93 50 -85 53 8 2 44 7 80 11 75 7 341 53 550 94 167 33 170
34 170 24z"/>

        </g>
</svg>
